<svg id="visual" viewBox="0 0 900 600" width="900" height="600" xmlns="http://www.w3.org/2000/svg" xmlns:xlink="http://www.w3.org/1999/xlink" version="1.1"><rect x="0" y="0" width="900" height="600" fill="#ffffff"></rect><defs><linearGradient id="grad1_0" x1="33.3%" y1="0%" x2="100%" y2="100%"><stop offset="20%" stop-color="#2c2e43" stop-opacity="1"></stop><stop offset="80%" stop-color="#2c2e43" stop-opacity="1"></stop></linearGradient></defs><defs><linearGradient id="grad1_1" x1="33.3%" y1="0%" x2="100%" y2="100%"><stop offset="20%" stop-color="#2c2e43" stop-opacity="1"></stop><stop offset="80%" stop-color="#47485b" stop-opacity="1"></stop></linearGradient></defs><defs><linearGradient id="grad1_2" x1="33.3%" y1="0%" x2="100%" y2="100%"><stop offset="20%" stop-color="#636374" stop-opacity="1"></stop><stop offset="80%" stop-color="#47485b" stop-opacity="1"></stop></linearGradient></defs><defs><linearGradient id="grad1_3" x1="33.3%" y1="0%" x2="100%" y2="100%"><stop offset="20%" stop-color="#636374" stop-opacity="1"></stop><stop offset="80%" stop-color="#80808e" stop-opacity="1"></stop></linearGradient></defs><defs><linearGradient id="grad1_4" x1="33.3%" y1="0%" x2="100%" y2="100%"><stop offset="20%" stop-color="#9e9ea9" stop-opacity="1"></stop><stop offset="80%" stop-color="#80808e" stop-opacity="1"></stop></linearGradient></defs><defs><linearGradient id="grad1_5" x1="33.3%" y1="0%" x2="100%" y2="100%"><stop offset="20%" stop-color="#9e9ea9" stop-opacity="1"></stop><stop offset="80%" stop-color="#bebec5" stop-opacity="1"></stop></linearGradient></defs><defs><linearGradient id="grad1_6" x1="33.3%" y1="0%" x2="100%" y2="100%"><stop offset="20%" stop-color="#dedee2" stop-opacity="1"></stop><stop offset="80%" stop-color="#bebec5" stop-opacity="1"></stop></linearGradient></defs><defs><linearGradient id="grad1_7" x1="33.3%" y1="0%" x2="100%" y2="100%"><stop offset="20%" stop-color="#dedee2" stop-opacity="1"></stop><stop offset="80%" stop-color="#ffffff" stop-opacity="1"></stop></linearGradient></defs><defs><linearGradient id="grad2_0" x1="0%" y1="0%" x2="66.7%" y2="100%"><stop offset="20%" stop-color="#2c2e43" stop-opacity="1"></stop><stop offset="80%" stop-color="#2c2e43" stop-opacity="1"></stop></linearGradient></defs><defs><linearGradient id="grad2_1" x1="0%" y1="0%" x2="66.7%" y2="100%"><stop offset="20%" stop-color="#47485b" stop-opacity="1"></stop><stop offset="80%" stop-color="#2c2e43" stop-opacity="1"></stop></linearGradient></defs><defs><linearGradient id="grad2_2" x1="0%" y1="0%" x2="66.7%" y2="100%"><stop offset="20%" stop-color="#47485b" stop-opacity="1"></stop><stop offset="80%" stop-color="#636374" stop-opacity="1"></stop></linearGradient></defs><defs><linearGradient id="grad2_3" x1="0%" y1="0%" x2="66.7%" y2="100%"><stop offset="20%" stop-color="#80808e" stop-opacity="1"></stop><stop offset="80%" stop-color="#636374" stop-opacity="1"></stop></linearGradient></defs><defs><linearGradient id="grad2_4" x1="0%" y1="0%" x2="66.7%" y2="100%"><stop offset="20%" stop-color="#80808e" stop-opacity="1"></stop><stop offset="80%" stop-color="#9e9ea9" stop-opacity="1"></stop></linearGradient></defs><defs><linearGradient id="grad2_5" x1="0%" y1="0%" x2="66.7%" y2="100%"><stop offset="20%" stop-color="#bebec5" stop-opacity="1"></stop><stop offset="80%" stop-color="#9e9ea9" stop-opacity="1"></stop></linearGradient></defs><defs><linearGradient id="grad2_6" x1="0%" y1="0%" x2="66.7%" y2="100%"><stop offset="20%" stop-color="#bebec5" stop-opacity="1"></stop><stop offset="80%" stop-color="#dedee2" stop-opacity="1"></stop></linearGradient></defs><defs><linearGradient id="grad2_7" x1="0%" y1="0%" x2="66.7%" y2="100%"><stop offset="20%" stop-color="#ffffff" stop-opacity="1"></stop><stop offset="80%" stop-color="#dedee2" stop-opacity="1"></stop></linearGradient></defs><g transform="translate(900, 0)"><path d="M0 378.6C-23.7 367.8 -47.3 357 -69.3 348.2C-91.2 339.4 -111.3 332.7 -137 330.7C-162.7 328.8 -193.8 331.7 -210.3 314.8C-226.9 297.9 -228.8 261.2 -235.5 235.5C-242.1 209.8 -253.4 195.1 -270.2 180.6C-287.1 166 -309.5 151.7 -320.6 132.8C-331.7 113.9 -331.6 90.4 -339.4 67.5C-347.1 44.6 -362.9 22.3 -378.6 0L0 0Z" fill="#eeeef0"></path><path d="M0 331.3C-20.7 321.8 -41.4 312.3 -60.6 304.7C-79.8 297 -97.4 291.1 -119.9 289.4C-142.3 287.7 -169.6 290.2 -184 275.4C-198.5 260.6 -200.2 228.5 -206 206C-211.8 183.5 -221.7 170.7 -236.4 158C-251.2 145.3 -270.8 132.7 -280.5 116.2C-290.2 99.6 -290.1 79.1 -296.9 59.1C-303.7 39 -317.5 19.5 -331.3 0L0 0Z" fill="#ceced3"></path><path d="M0 283.9C-17.8 275.8 -35.5 267.7 -51.9 261.1C-68.4 254.6 -83.5 249.5 -102.8 248.1C-122 246.6 -145.3 248.8 -157.7 236.1C-170.2 223.4 -171.6 195.9 -176.6 176.6C-181.6 157.3 -190 146.3 -202.7 135.4C-215.3 124.5 -232.1 113.8 -240.4 99.6C-248.8 85.4 -248.7 67.8 -254.5 50.6C-260.4 33.5 -272.1 16.7 -283.9 0L0 0Z" fill="#aeaeb7"></path><path d="M0 236.6C-14.8 229.9 -29.6 223.1 -43.3 217.6C-57 212.1 -69.6 207.9 -85.6 206.7C-101.7 205.5 -121.1 207.3 -131.5 196.7C-141.8 186.2 -143 163.2 -147.2 147.2C-151.3 131.1 -158.4 121.9 -168.9 112.9C-179.4 103.8 -193.4 94.8 -200.4 83C-207.3 71.2 -207.2 56.5 -212.1 42.2C-217 27.9 -226.8 13.9 -236.6 0L0 0Z" fill="#8f8f9c"></path><path d="M0 189.3C-11.8 183.9 -23.7 178.5 -34.6 174.1C-45.6 169.7 -55.7 166.3 -68.5 165.4C-81.3 164.4 -96.9 165.8 -105.2 157.4C-113.4 148.9 -114.4 130.6 -117.7 117.7C-121 104.9 -126.7 97.5 -135.1 90.3C-143.5 83 -154.7 75.9 -160.3 66.4C-165.9 56.9 -165.8 45.2 -169.7 33.8C-173.6 22.3 -181.4 11.2 -189.3 0L0 0Z" fill="#717281"></path><path d="M0 142C-8.9 137.9 -17.8 133.9 -26 130.6C-34.2 127.3 -41.8 124.8 -51.4 124C-61 123.3 -72.7 124.4 -78.9 118C-85.1 111.7 -85.8 97.9 -88.3 88.3C-90.8 78.7 -95 73.2 -101.3 67.7C-107.7 62.3 -116 56.9 -120.2 49.8C-124.4 42.7 -124.3 33.9 -127.3 25.3C-130.2 16.7 -136.1 8.4 -142 0L0 0Z" fill="#555568"></path><path d="M0 94.6C-5.9 91.9 -11.8 89.2 -17.3 87C-22.8 84.9 -27.8 83.2 -34.3 82.7C-40.7 82.2 -48.4 82.9 -52.6 78.7C-56.7 74.5 -57.2 65.3 -58.9 58.9C-60.5 52.4 -63.3 48.8 -67.6 45.1C-71.8 41.5 -77.4 37.9 -80.1 33.2C-82.9 28.5 -82.9 22.6 -84.8 16.9C-86.8 11.2 -90.7 5.6 -94.6 0L0 0Z" fill="#393b4f"></path><path d="M0 47.3C-3 46 -5.9 44.6 -8.7 43.5C-11.4 42.4 -13.9 41.6 -17.1 41.3C-20.3 41.1 -24.2 41.5 -26.3 39.3C-28.4 37.2 -28.6 32.6 -29.4 29.4C-30.3 26.2 -31.7 24.4 -33.8 22.6C-35.9 20.8 -38.7 19 -40.1 16.6C-41.5 14.2 -41.4 11.3 -42.4 8.4C-43.4 5.6 -45.4 2.8 -47.3 0L0 0Z" fill="#2c2e43"></path></g><g transform="translate(0, 600)"><path d="M0 -378.6C24.2 -375.3 48.4 -372 73.2 -367.8C97.9 -363.6 123.1 -358.5 142 -342.8C160.8 -327 173.4 -300.6 187.8 -281C202.2 -261.5 218.6 -248.8 234.8 -234.8C251 -220.7 267 -205.2 282.7 -188.9C298.4 -172.6 313.7 -155.5 329.8 -136.6C346 -117.7 363 -96.9 371.3 -73.9C379.6 -50.8 379.1 -25.4 378.6 0L0 0Z" fill="#eeeef0"></path><path d="M0 -331.3C21.2 -328.4 42.4 -325.5 64 -321.8C85.6 -318.2 107.7 -313.7 124.2 -299.9C140.7 -286.1 151.7 -263 164.3 -245.9C176.9 -228.8 191.2 -217.7 205.4 -205.4C219.6 -193.1 233.6 -179.5 247.4 -165.3C261.1 -151 274.5 -136.1 288.6 -119.5C302.7 -103 317.7 -84.8 324.9 -64.6C332.1 -44.4 331.7 -22.2 331.3 0L0 0Z" fill="#ceced3"></path><path d="M0 -283.9C18.2 -281.5 36.3 -279 54.9 -275.8C73.4 -272.7 92.3 -268.9 106.5 -257.1C120.6 -245.3 130 -225.4 140.8 -210.8C151.7 -196.1 163.9 -186.6 176.1 -176.1C188.2 -165.5 200.3 -153.9 212 -141.7C223.8 -129.5 235.2 -116.7 247.4 -102.5C259.5 -88.3 272.3 -72.7 278.5 -55.4C284.7 -38.1 284.3 -19 283.9 0L0 0Z" fill="#aeaeb7"></path><path d="M0 -236.6C15.1 -234.6 30.3 -232.5 45.7 -229.9C61.2 -227.3 76.9 -224.1 88.7 -214.2C100.5 -204.4 108.3 -187.9 117.4 -175.6C126.4 -163.4 136.6 -155.5 146.7 -146.7C156.9 -137.9 166.9 -128.2 176.7 -118.1C186.5 -107.9 196 -97.2 206.1 -85.4C216.2 -73.6 226.9 -60.6 232.1 -46.2C237.2 -31.7 236.9 -15.9 236.6 0L0 0Z" fill="#8f8f9c"></path><path d="M0 -189.3C12.1 -187.6 24.2 -186 36.6 -183.9C48.9 -181.8 61.6 -179.3 71 -171.4C80.4 -163.5 86.7 -150.3 93.9 -140.5C101.1 -130.7 109.3 -124.4 117.4 -117.4C125.5 -110.3 133.5 -102.6 141.3 -94.4C149.2 -86.3 156.8 -77.8 164.9 -68.3C173 -58.8 181.5 -48.5 185.7 -36.9C189.8 -25.4 189.5 -12.7 189.3 0L0 0Z" fill="#717281"></path><path d="M0 -142C9.1 -140.7 18.2 -139.5 27.4 -137.9C36.7 -136.4 46.2 -134.4 53.2 -128.5C60.3 -122.6 65 -112.7 70.4 -105.4C75.8 -98.1 82 -93.3 88 -88C94.1 -82.8 100.1 -76.9 106 -70.8C111.9 -64.7 117.6 -58.3 123.7 -51.2C129.7 -44.1 136.1 -36.4 139.2 -27.7C142.3 -19 142.2 -9.5 142 0L0 0Z" fill="#555568"></path><path d="M0 -94.6C6.1 -93.8 12.1 -93 18.3 -91.9C24.5 -90.9 30.8 -89.6 35.5 -85.7C40.2 -81.8 43.3 -75.1 46.9 -70.3C50.6 -65.4 54.6 -62.2 58.7 -58.7C62.7 -55.2 66.8 -51.3 70.7 -47.2C74.6 -43.2 78.4 -38.9 82.5 -34.2C86.5 -29.4 90.8 -24.2 92.8 -18.5C94.9 -12.7 94.8 -6.3 94.6 0L0 0Z" fill="#393b4f"></path><path d="M0 -47.3C3 -46.9 6.1 -46.5 9.1 -46C12.2 -45.5 15.4 -44.8 17.7 -42.8C20.1 -40.9 21.7 -37.6 23.5 -35.1C25.3 -32.7 27.3 -31.1 29.3 -29.3C31.4 -27.6 33.4 -25.6 35.3 -23.6C37.3 -21.6 39.2 -19.4 41.2 -17.1C43.2 -14.7 45.4 -12.1 46.4 -9.2C47.4 -6.3 47.4 -3.2 47.3 0L0 0Z" fill="#2c2e43"></path></g></svg>