<svg id="visual" viewBox="0 0 900 600" width="900" height="600" xmlns="http://www.w3.org/2000/svg" xmlns:xlink="http://www.w3.org/1999/xlink" version="1.1"><path d="M0 436L21.5 422.2C43 408.3 86 380.7 128.8 380.3C171.7 380 214.3 407 257.2 407.7C300 408.3 343 382.7 385.8 375.5C428.7 368.3 471.3 379.7 514.2 393.3C557 407 600 423 642.8 422.7C685.7 422.3 728.3 405.7 771.2 398.8C814 392 857 395 878.5 396.5L900 398L900 601L878.5 601C857 601 814 601 771.2 601C728.3 601 685.7 601 642.8 601C600 601 557 601 514.2 601C471.3 601 428.7 601 385.8 601C343 601 300 601 257.2 601C214.3 601 171.7 601 128.8 601C86 601 43 601 21.5 601L0 601Z" fill="#b2b1b9"></path><path d="M0 457L21.5 456.5C43 456 86 455 128.8 450.2C171.7 445.3 214.3 436.7 257.2 434.8C300 433 343 438 385.8 444.3C428.7 450.7 471.3 458.3 514.2 452C557 445.7 600 425.3 642.8 421C685.7 416.7 728.3 428.3 771.2 427.2C814 426 857 412 878.5 405L900 398L900 601L878.5 601C857 601 814 601 771.2 601C728.3 601 685.7 601 642.8 601C600 601 557 601 514.2 601C471.3 601 428.7 601 385.8 601C343 601 300 601 257.2 601C214.3 601 171.7 601 128.8 601C86 601 43 601 21.5 601L0 601Z" fill="#84858f"></path><path d="M0 464L21.5 462.2C43 460.3 86 456.7 128.8 455.3C171.7 454 214.3 455 257.2 459.3C300 463.7 343 471.3 385.8 469.3C428.7 467.3 471.3 455.7 514.2 455.8C557 456 600 468 642.8 475.8C685.7 483.7 728.3 487.3 771.2 487.7C814 488 857 485 878.5 483.5L900 482L900 601L878.5 601C857 601 814 601 771.2 601C728.3 601 685.7 601 642.8 601C600 601 557 601 514.2 601C471.3 601 428.7 601 385.8 601C343 601 300 601 257.2 601C214.3 601 171.7 601 128.8 601C86 601 43 601 21.5 601L0 601Z" fill="#575b68"></path><path d="M0 491L21.5 492.8C43 494.7 86 498.3 128.8 497.2C171.7 496 214.3 490 257.2 494.2C300 498.3 343 512.7 385.8 518C428.7 523.3 471.3 519.7 514.2 514C557 508.3 600 500.7 642.8 501.2C685.7 501.7 728.3 510.3 771.2 514.2C814 518 857 517 878.5 516.5L900 516L900 601L878.5 601C857 601 814 601 771.2 601C728.3 601 685.7 601 642.8 601C600 601 557 601 514.2 601C471.3 601 428.7 601 385.8 601C343 601 300 601 257.2 601C214.3 601 171.7 601 128.8 601C86 601 43 601 21.5 601L0 601Z" fill="#2c3543"></path><path d="M0 565L21.5 558.2C43 551.3 86 537.7 128.8 536C171.7 534.3 214.3 544.7 257.2 546.5C300 548.3 343 541.7 385.8 541C428.7 540.3 471.3 545.7 514.2 552C557 558.3 600 565.7 642.8 565.2C685.7 564.7 728.3 556.3 771.2 553.7C814 551 857 554 878.5 555.5L900 557L900 601L878.5 601C857 601 814 601 771.2 601C728.3 601 685.7 601 642.8 601C600 601 557 601 514.2 601C471.3 601 428.7 601 385.8 601C343 601 300 601 257.2 601C214.3 601 171.7 601 128.8 601C86 601 43 601 21.5 601L0 601Z" fill="#001220"></path></svg>