<svg id="visual" viewBox="0 0 900 600" width="900" height="600" xmlns="http://www.w3.org/2000/svg" xmlns:xlink="http://www.w3.org/1999/xlink" version="1.1"><rect x="0" y="0" width="900" height="600" fill="#ffffff"></rect><defs><linearGradient id="grad1_0" x1="33.3%" y1="0%" x2="100%" y2="100%"><stop offset="20%" stop-color="#ffffff" stop-opacity="1"></stop><stop offset="80%" stop-color="#ffffff" stop-opacity="1"></stop></linearGradient></defs><defs><linearGradient id="grad2_0" x1="0%" y1="0%" x2="66.7%" y2="100%"><stop offset="20%" stop-color="#ffffff" stop-opacity="1"></stop><stop offset="80%" stop-color="#ffffff" stop-opacity="1"></stop></linearGradient></defs><g transform="translate(900, 0)"><path d="M0 270.4C-27 244.4 -53.9 218.4 -85.7 206.9C-117.5 195.5 -154.1 198.4 -183.8 183.8C-213.6 169.2 -236.5 137.1 -249.8 103.5C-263.1 69.9 -266.8 35 -270.4 0L0 0Z" fill="#FFD523"></path></g><g transform="translate(0, 600)"><path d="M0 -270.4C40.3 -270.8 80.7 -271.3 102.9 -248.5C125.2 -225.8 129.4 -179.8 154.9 -154.9C180.3 -129.9 227 -125.8 249.8 -103.5C272.6 -81.2 271.5 -40.6 270.4 0L0 0Z" fill="#FFD523"></path></g></svg>