<svg xmlns="http://www.w3.org/2000/svg" xmlns:xlink="http://www.w3.org/1999/xlink" width="900" height="600" version="1.1" style=""><rect id="backgroundrect" width="100%" height="100%" x="0" y="0" fill="none" stroke="none"/><defs><linearGradient id="grad1_0" x1="33.3%" y1="0%" x2="100%" y2="100%"><stop offset="20%" stop-color="#2c2e43" stop-opacity="1"/><stop offset="80%" stop-color="#2c2e43" stop-opacity="1"/></linearGradient></defs><defs><linearGradient id="grad1_1" x1="33.3%" y1="0%" x2="100%" y2="100%"><stop offset="20%" stop-color="#2c2e43" stop-opacity="1"/><stop offset="80%" stop-color="#47485b" stop-opacity="1"/></linearGradient></defs><defs><linearGradient id="grad1_2" x1="33.3%" y1="0%" x2="100%" y2="100%"><stop offset="20%" stop-color="#636374" stop-opacity="1"/><stop offset="80%" stop-color="#47485b" stop-opacity="1"/></linearGradient></defs><defs><linearGradient id="grad1_3" x1="33.3%" y1="0%" x2="100%" y2="100%"><stop offset="20%" stop-color="#636374" stop-opacity="1"/><stop offset="80%" stop-color="#80808e" stop-opacity="1"/></linearGradient></defs><defs><linearGradient id="grad1_4" x1="33.3%" y1="0%" x2="100%" y2="100%"><stop offset="20%" stop-color="#9e9ea9" stop-opacity="1"/><stop offset="80%" stop-color="#80808e" stop-opacity="1"/></linearGradient></defs><defs><linearGradient id="grad1_5" x1="33.3%" y1="0%" x2="100%" y2="100%"><stop offset="20%" stop-color="#9e9ea9" stop-opacity="1"/><stop offset="80%" stop-color="#bebec5" stop-opacity="1"/></linearGradient></defs><defs><linearGradient id="grad1_6" x1="33.3%" y1="0%" x2="100%" y2="100%"><stop offset="20%" stop-color="#dedee2" stop-opacity="1"/><stop offset="80%" stop-color="#bebec5" stop-opacity="1"/></linearGradient></defs><defs><linearGradient id="grad1_7" x1="33.3%" y1="0%" x2="100%" y2="100%"><stop offset="20%" stop-color="#dedee2" stop-opacity="1"/><stop offset="80%" stop-color="#ffffff" stop-opacity="1"/></linearGradient></defs><defs><linearGradient id="grad2_0" x1="0%" y1="0%" x2="66.7%" y2="100%"><stop offset="20%" stop-color="#2c2e43" stop-opacity="1"/><stop offset="80%" stop-color="#2c2e43" stop-opacity="1"/></linearGradient></defs><defs><linearGradient id="grad2_1" x1="0%" y1="0%" x2="66.7%" y2="100%"><stop offset="20%" stop-color="#47485b" stop-opacity="1"/><stop offset="80%" stop-color="#2c2e43" stop-opacity="1"/></linearGradient></defs><defs><linearGradient id="grad2_2" x1="0%" y1="0%" x2="66.7%" y2="100%"><stop offset="20%" stop-color="#47485b" stop-opacity="1"/><stop offset="80%" stop-color="#636374" stop-opacity="1"/></linearGradient></defs><defs><linearGradient id="grad2_3" x1="0%" y1="0%" x2="66.7%" y2="100%"><stop offset="20%" stop-color="#80808e" stop-opacity="1"/><stop offset="80%" stop-color="#636374" stop-opacity="1"/></linearGradient></defs><defs><linearGradient id="grad2_4" x1="0%" y1="0%" x2="66.7%" y2="100%"><stop offset="20%" stop-color="#80808e" stop-opacity="1"/><stop offset="80%" stop-color="#9e9ea9" stop-opacity="1"/></linearGradient></defs><defs><linearGradient id="grad2_5" x1="0%" y1="0%" x2="66.7%" y2="100%"><stop offset="20%" stop-color="#bebec5" stop-opacity="1"/><stop offset="80%" stop-color="#9e9ea9" stop-opacity="1"/></linearGradient></defs><defs><linearGradient id="grad2_6" x1="0%" y1="0%" x2="66.7%" y2="100%"><stop offset="20%" stop-color="#bebec5" stop-opacity="1"/><stop offset="80%" stop-color="#dedee2" stop-opacity="1"/></linearGradient></defs><defs><linearGradient id="grad2_7" x1="0%" y1="0%" x2="66.7%" y2="100%"><stop offset="20%" stop-color="#ffffff" stop-opacity="1"/><stop offset="80%" stop-color="#dedee2" stop-opacity="1"/></linearGradient></defs><g class="currentLayer" style=""><title>Layer 1</title><rect x="0" y="0" width="900" height="600" fill="#ffffff" id="svg_1"/><g id="svg_2"><path d="M900,378.6 C876.3,367.8 852.7,357 830.7,348.2 C808.8,339.4 788.7,332.7 763,330.7 C737.3,328.8 706.2,331.7 689.7,314.8 C673.1,297.9 671.2,261.2 664.5,235.5 C657.9,209.8 646.6,195.1 629.8,180.6 C612.9,166 590.5,151.7 579.4,132.8 C568.3,113.9 568.4,90.4 560.6,67.5 C552.9,44.6 537.1,22.3 521.4,0 L900,0 z" fill="#eeeef0" id="svg_3"/><path d="M900,331.3 C879.3,321.8 858.6,312.3 839.4,304.7 C820.2,297 802.6,291.1 780.1,289.4 C757.7,287.7 730.4,290.2 716,275.4 C701.5,260.6 699.8,228.5 694,206 C688.2,183.5 678.3,170.7 663.6,158 C648.8,145.3 629.2,132.7 619.5,116.2 C609.8,99.6 609.9,79.1 603.1,59.1 C596.3,39 582.5,19.5 568.7,0 L900,0 z" fill="#ceced3" id="svg_4"/><path d="M900,283.9 C882.2,275.8 864.5,267.7 848.1,261.1 C831.6,254.6 816.5,249.5 797.2,248.1 C778,246.6 754.7,248.8 742.3,236.1 C729.8,223.4 728.4,195.9 723.4,176.6 C718.4,157.3 710,146.3 697.3,135.4 C684.7,124.5 667.9,113.8 659.6,99.6 C651.2,85.4 651.3,67.8 645.5,50.6 C639.6,33.5 627.9,16.7 616.1,0 L900,0 z" fill="#aeaeb7" id="svg_5"/><path d="M900,236.6 C885.2,229.9 870.4,223.1 856.7,217.6 C843,212.1 830.4,207.9 814.4,206.7 C798.3,205.5 778.9,207.3 768.5,196.7 C758.2,186.2 757,163.2 752.8,147.2 C748.7,131.1 741.6,121.9 731.1,112.9 C720.6,103.8 706.6,94.8 699.6,83 C692.7,71.2 692.8,56.5 687.9,42.2 C683,27.9 673.2,13.9 663.4,0 L900,0 z" fill="#8f8f9c" id="svg_6"/><path d="M900,189.3 C888.2,183.9 876.3,178.5 865.4,174.1 C854.4,169.7 844.3,166.3 831.5,165.4 C818.7,164.4 803.1,165.8 794.8,157.4 C786.6,148.9 785.6,130.6 782.3,117.7 C779,104.9 773.3,97.5 764.9,90.3 C756.5,83 745.3,75.9 739.7,66.4 C734.1,56.9 734.2,45.2 730.3,33.8 C726.4,22.3 718.6,11.2 710.7,0 L900,0 z" fill="#717281" id="svg_7"/><path d="M900,142 C891.1,137.9 882.2,133.9 874,130.6 C865.8,127.3 858.2,124.8 848.6,124 C839,123.3 827.3,124.4 821.1,118 C814.9,111.7 814.2,97.9 811.7,88.3 C809.2,78.7 805,73.2 798.7,67.7 C792.3,62.3 784,56.9 779.8,49.8 C775.6,42.7 775.7,33.9 772.7,25.3 C769.8,16.7 763.9,8.4 758,0 L900,0 z" fill="#555568" id="svg_8"/><path d="M900,94.6 C894.1,91.9 888.2,89.2 882.7,87 C877.2,84.9 872.2,83.2 865.7,82.7 C859.3,82.2 851.6,82.9 847.4,78.7 C843.3,74.5 842.8,65.3 841.1,58.9 C839.5,52.4 836.7,48.8 832.4,45.1 C828.2,41.5 822.6,37.9 819.9,33.2 C817.1,28.5 817.1,22.6 815.2,16.9 C813.2,11.2 809.3,5.6 805.4,0 L900,0 z" fill="#393b4f" id="svg_9"/><path d="M900,47.3 C897,46 894.1,44.6 891.3,43.5 C888.6,42.4 886.1,41.6 882.9,41.3 C879.7,41.1 875.8,41.5 873.7,39.3 C871.6,37.2 871.4,32.6 870.6,29.4 C869.7,26.2 868.3,24.4 866.2,22.6 C864.1,20.8 861.3,19 859.9,16.6 C858.5,14.2 858.6,11.3 857.6,8.4 C856.6,5.6 854.6,2.8 852.7,0 L900,0 z" fill="#2c2e43" id="svg_10"/></g></g></svg>